<svg width="25290" height="7126" viewBox="0 0 25290 7126" fill="none" xmlns="http://www.w3.org/2000/svg">
<rect x="125" width="25165" height="60" fill="#6A5584" fill-opacity="0.27"/>
<path d="M8842 1810H25290V1870H8842V1810Z" fill="#6A5584" fill-opacity="0.27"/>
<path d="M3089.39 7093.37C2612.06 7168.64 2123.25 7113.12 1674.97 6932.69C1226.68 6752.26 835.696 6453.69 543.601 6068.73C251.506 5683.77 69.2297 5226.83 16.1653 4746.53C-36.8991 4266.22 41.2329 3780.51 242.249 3341.07C443.265 2901.64 759.646 2524.91 1157.73 2250.98C1555.82 1977.05 2020.71 1816.15 2502.97 1785.41C2985.22 1754.67 3466.78 1855.24 3896.43 2076.41C4326.07 2297.59 4687.72 2631.09 4942.9 3041.45L4875.31 3083.48C4627.73 2685.35 4276.84 2361.77 3859.99 2147.19C3443.14 1932.6 2975.92 1835.03 2508.03 1864.85C2040.14 1894.67 1589.08 2050.78 1202.85 2316.55C816.622 2582.33 509.663 2947.84 314.632 3374.19C119.602 3800.54 43.7968 4271.78 95.2811 4737.79C146.765 5203.79 323.613 5647.12 607.01 6020.62C890.407 6394.11 1269.75 6683.79 1704.69 6858.85C2139.62 7033.9 2613.87 7087.78 3076.99 7014.74L3089.39 7093.37Z" fill="#6A5584" fill-opacity="0.27"/>
<path d="M8370.03 1869.6C8343.58 1858.73 8343.58 1821.27 8370.03 1810.4L8797.59 1634.71C8818.65 1626.06 8841.75 1641.54 8841.75 1664.31V2015.69C8841.75 2038.46 8818.65 2053.94 8797.59 2045.29L8370.03 1869.6Z" fill="#6A5584" fill-opacity="0.27"/>
<line x1="2673" y1="4423" x2="23946" y2="4423" stroke="#6A5584" stroke-opacity="0.27" stroke-width="60"/>
<line x1="2673" y1="5658" x2="18199.1" y2="5658" stroke="#6A5584" stroke-opacity="0.27" stroke-width="60"/>
</svg>
